# xmcd CD database file
#
# Track frame offsets:
#	150
#	18092
#	36488
#	56572
#	74922
#	96490
#	122688
#	140891
#	162579
#	178517
#	201857
#	224954
#	251142
#	272715
#	296470
#	317270
#
# Disc length: 4613 seconds
#
# Revision: 0
# Processed by: cddbd v1.5.1PL0 Copyright (c) Steve Scherf et al.
# Submitted via: CDex 1.51
#
DISCID=0a120310
DTITLE=Diana Krall - The Girl in the Other Room
DYEAR=2004
DGENRE=Jazz
TTITLE0=Stop This World
TTITLE1=The Girl In The Other Room
TTITLE2=Temptation
TTITLE3=Almost Blue
TTITLE4=I've Changed My Adress
TTITLE5=Love Me Like A Man
TTITLE6=I'm Pulling Through
TTITLE7=Black Crow
TTITLE8=Narrow Daylight
TTITLE9=Abandoned Masquerade
TTITLE10=I'm Coming Through
TTITLE11=Departure Bay
TTITLE12=I'll Never Be The Same
TTITLE13=Sometimes I just Freak Out
TTITLE14=Bonus 1
TTITLE15=Bonus 2
EXTD=YEAR: 2004
EXTT0=
EXTT1=
EXTT2=
EXTT3=
EXTT4=
EXTT5=
EXTT6=
EXTT7=
EXTT8=
EXTT9=
EXTT10=
EXTT11=
EXTT12=
EXTT13=
EXTT14=
EXTT15=
PLAYORDER=
